# 3ds Max Wavefront OBJ Exporter v0.97b - (c)2007 guruware
# File Created: 24.08.2012 23:12:16

#
# object Object001
#

v  0.00000 -0.11588 0.52633
v  0.06863 -0.08780 0.52399
v  0.04456 0.08813 0.50986
v  0.00000 0.10636 0.51268
v  0.00000 -0.11908 0.44389
v  0.06653 -0.08920 0.44135
v  0.04923 -0.16135 0.46614
v  0.00000 -0.16198 0.45887
v  0.04213 0.08919 0.44116
v  0.07637 0.11379 0.45474
v  0.10715 -0.11128 0.46204
v  0.00000 0.10915 0.44417
v  0.00000 0.16687 0.46121
v  0.10998 -0.11112 0.51041
v  0.04940 -0.16149 0.51540
v  0.07920 0.11394 0.49647
v  0.00000 0.16703 0.48230
v  0.03782 -0.32869 0.50542
v  0.01152 -0.32809 0.50873
v  0.01152 -0.32900 0.47242
v  0.03771 -0.32840 0.46984
v  0.00000 -0.16086 0.52162
v  0.04555 -0.16642 0.51200
v  0.04539 -0.16642 0.46951
v  0.00384 -0.16642 0.51700
v  0.00384 -0.16642 0.46300
v  0.04553 -0.33258 0.51200
v  0.04538 -0.33239 0.46950
v  0.00383 -0.33196 0.51700
v  0.00383 -0.33301 0.46300
v  -0.04456 0.08813 0.50986
v  -0.06863 -0.08780 0.52399
v  -0.04923 -0.16135 0.46614
v  -0.06653 -0.08920 0.44135
v  -0.10715 -0.11128 0.46204
v  -0.07637 0.11379 0.45474
v  -0.04213 0.08919 0.44116
v  -0.04940 -0.16149 0.51540
v  -0.10998 -0.11112 0.51041
v  -0.07920 0.11394 0.49647
v  -0.03782 -0.32869 0.50542
v  -0.03771 -0.32840 0.46984
v  -0.01152 -0.32900 0.47242
v  -0.01152 -0.32809 0.50873
v  -0.04539 -0.16642 0.46951
v  -0.04555 -0.16642 0.51200
v  -0.00384 -0.16642 0.51700
v  -0.00384 -0.16642 0.46300
v  -0.04538 -0.33239 0.46950
v  -0.04553 -0.33258 0.51200
v  -0.00383 -0.33196 0.51700
v  -0.00383 -0.33301 0.46300
# 52 vertices

vn 0.00111 0.08025 0.99677
vn 0.08805 0.06105 0.99424
vn 0.12094 -0.34843 -0.92950
vn 0.14228 -0.32622 -0.93452
vn 0.33998 0.04551 -0.93933
vn 0.46895 0.03551 -0.88251
vn 0.06562 0.28270 -0.95696
vn 0.14244 0.31918 -0.93693
vn 0.65213 -0.75727 -0.03570
vn 0.63911 -0.76910 -0.00440
vn 0.98880 0.13304 -0.06761
vn 0.98957 0.13172 -0.05838
vn 0.57039 0.82135 -0.00618
vn 0.56136 0.82654 -0.04124
vn 0.22003 -0.16947 0.96066
vn 0.29360 0.09902 0.95078
vn 0.37260 0.12487 0.91955
vn 0.13876 0.44345 0.88549
vn 0.16884 0.26560 0.94918
vn -0.01977 -0.99949 0.02513
vn 0.02222 -0.99972 -0.00834
vn 0.09029 -0.13859 0.98623
vn 0.12307 -0.10327 0.98701
vn 0.25514 -0.36841 -0.89397
vn 0.78936 -0.61392 -0.00451
vn 0.79654 -0.60458 -0.00290
vn 0.09273 -0.59789 0.79619
vn 0.09400 -0.61358 0.78402
vn -0.76125 -0.64836 0.01159
vn -0.82262 -0.56860 -0.00000
vn 0.12328 -0.61194 -0.78124
vn 0.12170 -0.61772 -0.77693
vn 0.99999 -0.00008 -0.00364
vn 0.11904 -0.00001 0.99289
vn -1.00000 0.00008 0.00000
vn -1.00000 0.00008 -0.00000
vn 0.15476 0.00004 -0.98795
vn 0.15457 -0.00001 -0.98798
vn -0.44861 -0.89372 -0.00233
vn -0.46210 -0.88681 -0.00588
vn -0.07007 -0.87687 -0.47560
vn -0.07591 -0.89496 -0.43964
vn 0.44544 -0.89514 0.01744
vn 0.46847 -0.88320 0.02221
vn -0.13984 -0.34788 0.92705
vn 0.05615 -0.93433 0.35196
vn 0.00000 -0.00792 -0.99997
vn -0.07671 -0.01156 -0.99699
vn -0.04263 -0.00010 -0.99909
vn 0.00000 0.00119 -1.00000
vn -0.08805 0.06105 0.99424
vn -0.00111 0.08025 0.99677
vn -0.14228 -0.32622 -0.93452
vn -0.12094 -0.34843 -0.92950
vn -0.46895 0.03551 -0.88251
vn -0.33998 0.04551 -0.93933
vn -0.14244 0.31918 -0.93693
vn -0.06562 0.28270 -0.95696
vn -0.63911 -0.76910 -0.00440
vn -0.65213 -0.75727 -0.03570
vn -0.98957 0.13172 -0.05838
vn -0.98880 0.13304 -0.06761
vn -0.56136 0.82654 -0.04124
vn -0.57039 0.82135 -0.00618
vn -0.22003 -0.16947 0.96066
vn -0.37260 0.12487 0.91955
vn -0.29360 0.09902 0.95078
vn -0.16884 0.26560 0.94918
vn -0.13876 0.44345 0.88549
vn -0.02222 -0.99972 -0.00834
vn 0.01977 -0.99949 0.02513
vn -0.12307 -0.10327 0.98701
vn -0.09029 -0.13859 0.98623
vn -0.25514 -0.36841 -0.89397
vn -0.79654 -0.60458 -0.00290
vn -0.78936 -0.61392 -0.00451
vn -0.09400 -0.61358 0.78402
vn -0.09273 -0.59789 0.79619
vn 0.82262 -0.56860 -0.00000
vn 0.76125 -0.64836 0.01159
vn -0.12170 -0.61772 -0.77693
vn -0.12328 -0.61194 -0.78124
vn -0.99999 -0.00008 -0.00364
vn -0.11904 -0.00001 0.99289
vn 1.00000 0.00008 -0.00000
vn 1.00000 0.00008 0.00000
vn -0.15457 -0.00001 -0.98798
vn -0.15476 0.00004 -0.98795
vn 0.46210 -0.88681 -0.00588
vn 0.44861 -0.89372 -0.00233
vn 0.07591 -0.89496 -0.43964
vn 0.07007 -0.87687 -0.47560
vn -0.46847 -0.88320 0.02221
vn -0.44544 -0.89514 0.01744
vn -0.05615 -0.93433 0.35196
vn 0.13984 -0.34788 0.92705
vn 0.04263 -0.00010 -0.99909
vn 0.07671 -0.01156 -0.99699
# 98 vertex normals

vt 0.50000 0.50000 0.00000
vt 0.37500 0.50000 0.00000
vt 0.46999 0.50000 0.00000
vt 0.47056 0.50000 0.00000
# 4 texture coords

g Object001
f 1/1/1 2/2/1 3/2/1 
f 3/2/2 4/1/2 1/1/2 
f 5/1/3 6/2/3 7/3/3 
f 7/3/4 8/1/4 5/1/4 
f 6/2/5 9/2/5 10/2/5 
f 10/2/6 11/2/6 6/2/6 
f 9/2/7 12/1/7 13/1/7 
f 13/1/8 10/2/8 9/2/8 
f 7/3/9 11/2/9 14/2/9 
f 14/2/10 15/4/10 7/3/10 
f 11/2/11 10/2/11 16/2/11 
f 16/2/12 14/2/12 11/2/12 
f 10/2/13 13/1/13 17/1/13 
f 17/1/14 16/2/14 10/2/14 
f 15/4/15 14/2/15 2/2/15 
f 14/2/16 16/2/16 3/2/16 
f 3/2/17 2/2/17 14/2/17 
f 16/2/18 17/1/18 4/1/18 
f 4/1/19 3/2/19 16/2/19 
f 18/4/20 19/1/20 20/1/20 
f 20/1/21 21/3/21 18/4/21 
f 15/4/22 2/2/22 1/1/22 
f 1/1/23 22/1/23 15/4/23 
f 6/2/24 11/2/24 7/3/24 
f 7/3/25 15/4/25 23/4/25 
f 23/4/26 24/3/26 7/3/26 
f 15/4/27 22/1/27 25/1/27 
f 25/1/28 23/4/28 15/4/28 
f 22/1/29 8/1/29 26/1/29 
f 26/1/30 25/1/30 22/1/30 
f 8/1/31 7/3/31 24/3/31 
f 24/3/32 26/1/32 8/1/32 
f 24/3/33 23/4/33 27/4/33 
f 27/4/33 28/3/33 24/3/33 
f 23/4/34 25/1/34 29/1/34 
f 29/1/34 27/4/34 23/4/34 
f 25/1/35 26/1/35 30/1/35 
f 30/1/36 29/1/36 25/1/36 
f 26/1/37 24/3/37 28/3/37 
f 28/3/38 30/1/38 26/1/38 
f 28/3/39 27/4/39 18/4/39 
f 18/4/40 21/3/40 28/3/40 
f 27/4/41 29/1/41 19/1/41 
f 19/1/42 18/4/42 27/4/42 
f 29/1/43 30/1/43 20/1/43 
f 20/1/44 19/1/44 29/1/44 
f 30/1/45 28/3/45 21/3/45 
f 21/3/46 20/1/46 30/1/46 
f 12/1/47 9/2/48 6/2/49 
f 6/2/49 5/1/50 12/1/47 
f 1/1/51 4/1/51 31/2/51 
f 31/2/52 32/2/52 1/1/52 
f 5/1/53 8/1/53 33/3/53 
f 33/3/54 34/2/54 5/1/54 
f 34/2/55 35/2/55 36/2/55 
f 36/2/56 37/2/56 34/2/56 
f 37/2/57 36/2/57 13/1/57 
f 13/1/58 12/1/58 37/2/58 
f 33/3/59 38/4/59 39/2/59 
f 39/2/60 35/2/60 33/3/60 
f 35/2/61 39/2/61 40/2/61 
f 40/2/62 36/2/62 35/2/62 
f 36/2/63 40/2/63 17/1/63 
f 17/1/64 13/1/64 36/2/64 
f 38/4/65 32/2/65 39/2/65 
f 39/2/66 32/2/66 31/2/66 
f 31/2/67 40/2/67 39/2/67 
f 40/2/68 31/2/68 4/1/68 
f 4/1/69 17/1/69 40/2/69 
f 41/4/70 42/3/70 43/1/70 
f 43/1/71 44/1/71 41/4/71 
f 38/4/72 22/1/72 1/1/72 
f 1/1/73 32/2/73 38/4/73 
f 34/2/74 33/3/74 35/2/74 
f 33/3/75 45/3/75 46/4/75 
f 46/4/76 38/4/76 33/3/76 
f 38/4/77 46/4/77 47/1/77 
f 47/1/78 22/1/78 38/4/78 
f 22/1/79 47/1/79 48/1/79 
f 48/1/80 8/1/80 22/1/80 
f 8/1/81 48/1/81 45/3/81 
f 45/3/82 33/3/82 8/1/82 
f 45/3/83 49/3/83 50/4/83 
f 50/4/83 46/4/83 45/3/83 
f 46/4/84 50/4/84 51/1/84 
f 51/1/84 47/1/84 46/4/84 
f 47/1/85 51/1/85 52/1/85 
f 52/1/86 48/1/86 47/1/86 
f 48/1/87 52/1/87 49/3/87 
f 49/3/88 45/3/88 48/1/88 
f 49/3/89 42/3/89 41/4/89 
f 41/4/90 50/4/90 49/3/90 
f 50/4/91 41/4/91 44/1/91 
f 44/1/92 51/1/92 50/4/92 
f 51/1/93 44/1/93 43/1/93 
f 43/1/94 52/1/94 51/1/94 
f 52/1/95 43/1/95 42/3/95 
f 42/3/96 49/3/96 52/1/96 
f 12/1/47 5/1/50 34/2/97 
f 34/2/97 37/2/98 12/1/47 
# 100 faces

