# 3ds Max Wavefront OBJ Exporter v0.97b - (c)2007 guruware
# File Created: 14.07.2012 21:05:38

mtllib ship-normals.mtl

#
# object Box001
#

v  -0.6848 1.5727 0.9276
v  0.6848 1.5727 0.9276
v  0.2695 2.0060 0.9276
v  -0.2695 2.0060 0.9276
v  0.2695 2.0060 0.5658
v  0.6848 1.5727 0.5658
v  -0.6848 1.5727 0.5658
v  -0.2695 2.0060 0.5658
v  0.4732 -1.8582 0.9276
v  -0.4732 -1.8582 0.9276
v  -0.4732 -1.8582 0.5658
v  0.4732 -1.8582 0.5658
v  -0.4732 0.1778 0.9276
v  -0.4732 0.1778 0.5658
v  0.4732 0.1778 0.9276
v  0.4732 0.1778 0.5658
# 16 vertices

vn 0.0000 0.0000 1.0000
vn 0.0000 0.0000 -1.0000
vn 0.0000 1.0000 -0.0000
vn 0.7219 0.6920 -0.0000
vn 0.0000 -1.0000 -0.0000
vn -1.0000 0.0000 -0.0000
vn 0.0000 -0.0000 1.0000
vn 1.0000 0.0000 -0.0000
vn -0.9887 -0.1500 -0.0000
vn -0.9887 -0.1500 0.0000
vn 0.9887 -0.1500 0.0000
vn 0.9887 -0.1500 -0.0000
vn -0.7219 0.6920 -0.0000
# 13 vertex normals

vt 1.0000 0.2500 0.0000
vt 0.0000 0.2500 0.0000
vt 0.0000 0.0000 0.0000
vt 1.0000 0.0000 0.0000
vt 1.0000 1.0000 0.0000
vt 0.0000 1.0000 0.0000
vt 0.2500 0.0000 0.0000
vt 0.2500 1.0000 0.0000
vt 0.5000 0.0000 0.0000
vt 0.5000 1.0000 0.0000
vt 0.0000 0.5000 0.0000
vt 1.0000 0.5000 0.0000
vt 0.7500 0.0000 0.0000
vt 0.7500 1.0000 0.0000
# 14 texture coords

g Box001
usemtl wire_229166215
f 1/1/1 2/2/1 3/3/1 
f 3/3/1 4/4/1 1/1/1 
f 5/4/2 6/1/2 7/2/2 
f 7/2/2 8/3/2 5/4/2 
f 4/3/3 3/4/3 5/5/3 
f 5/5/3 8/6/3 4/3/3 
f 2/7/4 6/8/4 5/6/4 
f 5/6/4 3/3/4 2/7/4 
f 9/3/5 10/4/5 11/5/5 
f 11/5/5 12/6/5 9/3/5 
f 13/9/6 14/10/6 11/6/6 
f 11/6/6 10/3/6 13/9/6 
f 10/5/7 9/6/7 15/11/7 
f 15/11/7 13/12/7 10/5/7 
f 12/5/2 11/6/2 14/11/2 
f 14/11/2 16/12/2 12/5/2 
f 9/4/8 12/5/8 16/10/8 
f 16/10/8 15/9/8 9/4/8 
f 1/13/9 7/14/9 14/10/9 
f 14/10/10 13/9/10 1/13/10 
f 13/12/1 15/11/1 2/2/1 
f 2/2/1 1/1/1 13/12/1 
f 16/12/2 14/11/2 7/2/2 
f 7/2/2 6/1/2 16/12/2 
f 15/9/11 16/10/11 6/8/11 
f 6/8/12 2/7/12 15/9/12 
f 4/4/13 8/5/13 7/14/13 
f 7/14/13 1/13/13 4/4/13 
# 28 faces

